PathFileType	4	(X/Y/Z)	c:/Users/goper/Files/vsCode/490R/osim_files/C06/C06_Static_01.trc
DataRate	CameraRate	NumFrames	NumMarkers	Units                	OrigDataRate	OrigDataStartFrame	OrigNumFrames
250.00	250.00	10	36	mm	250.0	1	1714
                Frame#	Time	LPSIS			LASIS			LTH1			LTH2			LTH3			LTH4			LLFE			LMFE			LSH1			LSH2			LSH3			LSH4			LLMAL			LMMAL			LCAL			LMTP5			LTOE			LMTP1			RPSIS			RASIS			RTH1			RTH2			RTH3			RTH4			RLFE			RMFE			RSH1			RSH2			RSH3			RSH4			RLMAL			RMMAL			RCAL			RMTP1			RTOE			RMTP5		
		X1	Y1	Z1	X2	Y2	Z2	X3	Y3	Z3	X4	Y4	Z4	X5	Y5	Z5	X6	Y6	Z6	X7	Y7	Z7	X8	Y8	Z8	X9	Y9	Z9	X10	Y10	Z10	X11	Y11	Z11	X12	Y12	Z12	X13	Y13	Z13	X14	Y14	Z14	X15	Y15	Z15	X16	Y16	Z16	X17	Y17	Z17	X18	Y18	Z18	X19	Y19	Z19	X20	Y20	Z20	X21	Y21	Z21	X22	Y22	Z22	X23	Y23	Z23	X24	Y24	Z24	X25	Y25	Z25	X26	Y26	Z26	X27	Y27	Z27	X28	Y28	Z28	X29	Y29	Z29	X30	Y30	Z30	X31	Y31	Z31	X32	Y32	Z32	X33	Y33	Z33	X34	Y34	Z34	X35	Y35	Z35	X36	Y36	Z36

1	0.00000	-394.05475	1015.62366	485.96713	-225.67638	970.33960	372.82364	-325.70657	801.45471	294.39490	-317.50491	739.79895	284.10971	-251.42505	802.36310	306.19907	-252.40114	742.05713	294.76456	-326.72437	481.44290	296.67441	-334.38419	447.49277	407.62442	-400.15512	377.55530	264.75070	-392.46378	335.10742	260.17383	-335.48965	383.19330	262.60403	-338.53912	339.29645	258.04495	-358.38071	92.74530	269.60687	-347.24994	97.52858	348.46423	-422.03314	66.42526	312.72479	-247.55618	30.72720	238.10535	-195.66470	55.83607	305.98523	-221.01131	35.98130	352.10013	-390.86053	1012.97070	558.53882	-201.83014	969.47144	613.95050	-292.93829	792.14020	710.04413	-285.92075	729.34644	711.28583	-221.19012	792.77252	687.53802	-224.31860	730.13043	693.07190	-305.39127	462.80380	690.48572	-300.42612	463.05554	580.13074	-364.08105	392.55508	717.53668	-361.17978	344.73047	723.60742	-304.17029	386.17087	710.38800	-310.09769	340.25848	716.50879	-337.29651	91.05042	698.81763	-317.91565	105.16953	620.10840	-400.48404	62.28696	656.83478	-198.25435	44.98306	622.51788	-176.24030	53.44368	661.43268	-219.54875	29.13408	728.67798
2	0.00400	-394.00244	1015.63379	485.95016	-225.63733	970.34869	372.83652	-325.63461	801.47980	294.35333	-317.48471	739.81885	284.10025	-251.38240	802.36505	306.20148	-252.36830	742.06030	294.74866	-326.71979	481.45786	296.67664	-334.39465	447.50195	407.59897	-400.16229	377.58002	264.74487	-392.41376	335.16766	260.10452	-335.49539	383.19998	262.61017	-338.52182	339.33374	258.05273	-358.39380	92.77713	269.60306	-347.24716	97.52714	348.46103	-422.03098	66.40607	312.76147	-247.57762	30.74068	238.11433	-195.71004	55.83267	306.03311	-221.01793	35.98321	352.11295	-390.85999	1012.98444	558.48700	-201.78424	969.48767	613.94928	-292.92258	792.13397	710.03241	-285.87378	729.34290	711.29248	-221.17975	792.77277	687.52972	-224.34546	730.08887	693.05902	-305.39676	462.79868	690.48816	-300.37939	463.08511	580.10852	-364.06207	392.55777	717.53711	-361.19510	344.60663	723.60638	-304.17703	386.19635	710.37543	-310.11075	340.25958	716.50800	-337.21823	91.04771	698.91125	-317.92422	105.19797	620.10706	-400.47797	62.26588	656.82581	-198.24648	44.99683	622.53223	-176.23447	53.45647	661.45764	-219.55263	29.13166	728.68262
3	0.00800	-393.99612	1015.62946	485.92181	-225.60953	970.34412	372.81848	-325.61978	801.48932	294.34778	-317.44601	739.82745	284.08746	-251.37100	802.37122	306.16144	-252.32573	742.06470	294.72614	-326.72147	481.45459	296.66406	-334.40912	447.49582	407.59360	-400.16992	377.59357	264.74869	-392.42123	335.16034	260.11395	-335.49069	383.20160	262.60504	-338.52640	339.34256	258.04398	-358.40439	92.77591	269.61270	-347.25400	97.51027	348.45361	-422.00739	66.40096	312.75671	-247.56538	30.73184	238.11484	-195.65880	55.85168	306.02670	-221.03096	35.98580	352.11694	-390.80414	1012.96375	558.46802	-201.74792	969.48871	613.93781	-292.88538	792.12653	710.01758	-285.86536	729.34821	711.25226	-221.15317	792.76190	687.52869	-224.30699	730.09332	693.06006	-305.38916	462.78513	690.45862	-300.02316	463.18942	579.68414	-364.05252	392.55426	717.49738	-361.20752	344.61774	723.58923	-304.19531	386.15735	710.37415	-310.10977	340.25760	716.50439	-337.25110	91.04434	698.91016	-317.94089	105.19177	620.10107	-400.47827	62.29070	656.84808	-198.23372	44.99509	622.52124	-176.23174	53.44785	661.44757	-219.55850	29.13995	728.68744
4	0.01200	-393.99405	1015.63287	485.88986	-225.59380	970.33002	372.81357	-325.61545	801.49866	294.32721	-317.42502	739.82251	284.07883	-251.31053	802.36249	306.15549	-252.31488	742.06140	294.71802	-326.71335	481.45496	296.65680	-334.37775	447.50507	407.59119	-400.16766	377.59518	264.72522	-392.54758	335.11472	260.21112	-335.49460	383.21765	262.60733	-338.53351	339.32794	258.04181	-358.42911	92.76705	269.61078	-347.29172	97.50822	348.45184	-422.04785	66.43552	312.76886	-247.57820	30.72352	238.11736	-195.69156	55.85411	306.03085	-221.05473	35.96410	352.11105	-390.77878	1012.96539	558.43842	-201.74297	969.47272	613.94214	-292.88254	792.12305	710.00287	-285.88037	729.33795	711.27008	-221.13922	792.76666	687.52209	-224.29874	730.09918	693.03955	-305.37924	462.79636	690.46582	-300.39536	463.07239	580.10638	-364.08975	392.54605	717.50482	-361.17624	344.70422	723.55890	-304.18762	386.16306	710.38385	-310.13379	340.24445	716.51630	-337.31909	91.03983	698.81140	-317.92581	105.18858	620.09418	-400.49869	62.28968	656.84808	-198.26904	44.97825	622.52307	-176.24391	53.44362	661.46783	-219.57649	29.10427	728.68927
5	0.01600	-393.94705	1015.65448	485.88824	-225.55199	970.33301	372.82001	-325.57495	801.49237	294.33664	-317.39993	739.82263	284.06784	-251.30119	802.34460	306.14111	-252.26596	742.03674	294.73059	-326.70859	481.44522	296.66544	-334.37744	447.49988	407.59079	-400.15237	377.59610	264.71942	-392.41458	335.17450	260.13187	-335.48016	383.19635	262.62262	-338.52887	339.31320	258.06046	-358.40945	92.76556	269.60803	-347.29102	97.51942	348.46741	-422.06335	66.45641	312.73785	-247.55898	30.72199	238.12544	-195.66640	55.81869	306.03888	-221.05829	35.97885	352.12512	-390.70694	1012.99164	558.43988	-201.70364	969.47870	613.94519	-292.87521	792.13220	710.00116	-285.88419	729.32654	711.24982	-221.13393	792.74139	687.52655	-224.26329	730.08606	693.03998	-305.38007	462.79523	690.45703	-300.34781	463.08206	580.07800	-364.06964	392.56650	717.50671	-361.20319	344.72119	723.57190	-304.18451	386.18726	710.37946	-310.13004	340.25839	716.50610	-337.33911	91.04649	698.82660	-317.93207	105.18412	620.10931	-400.53134	62.30399	656.84381	-198.26045	44.98412	622.53912	-176.25494	53.44704	661.47467	-219.58632	29.12496	728.71155
6	0.02000	-393.91931	1015.67065	485.88632	-225.52821	970.32611	372.81348	-325.55789	801.48163	294.32065	-317.36780	739.82574	284.07803	-251.25183	802.35095	306.13538	-252.21117	742.04498	294.71146	-326.68451	481.44846	296.66284	-334.35309	447.51678	407.60342	-400.15042	377.60153	264.71689	-392.42996	335.12845	260.12839	-335.48346	383.19272	262.60843	-338.48441	339.33942	258.04358	-358.41031	92.77254	269.62015	-347.29675	97.54737	348.45273	-422.07666	66.45532	312.73245	-247.53662	30.72400	238.12265	-195.68985	55.78050	306.00748	-221.04214	35.99744	352.11584	-390.67560	1013.00793	558.43073	-201.66086	969.48248	613.93127	-292.82690	792.13879	709.99878	-285.83295	729.36572	711.23779	-221.07761	792.74945	687.51385	-224.19585	730.11176	693.00824	-305.36133	462.80792	690.43860	-300.34317	463.06815	580.08276	-364.07404	392.58798	717.47717	-361.17020	344.74127	723.54309	-304.15536	386.20142	710.35516	-310.10464	340.27505	716.50085	-337.31918	91.05809	698.83276	-317.91919	105.18845	620.11328	-400.50644	62.31881	656.82007	-198.25960	44.96918	622.53186	-176.25172	53.45652	661.45160	-219.60132	29.12612	728.69879
7	0.02400	-393.86859	1015.68738	485.89551	-225.46896	970.33777	372.80264	-325.52588	801.47894	294.32614	-317.33023	739.82446	284.05765	-251.21956	802.32471	306.13568	-252.19203	742.04022	294.71298	-326.66846	481.43820	296.67963	-334.35013	447.52240	407.59122	-400.09964	377.57623	264.70743	-392.46344	335.06281	260.18304	-335.45312	383.17328	262.60757	-338.50583	339.29294	258.04468	-358.40054	92.75699	269.59998	-347.27487	97.55161	348.46252	-422.05652	66.47761	312.64716	-247.56172	30.69404	238.11626	-195.69792	55.81385	306.00430	-221.02354	35.99232	352.10703	-390.64557	1013.01923	558.44391	-201.60199	969.46387	613.92578	-292.78726	792.16418	709.99622	-285.75070	729.39404	711.24634	-221.01064	792.76752	687.51154	-224.13123	730.11353	693.00250	-305.32712	462.81033	690.44971	-300.33319	463.05194	580.08289	-364.04944	392.61859	717.46722	-361.15906	344.75677	723.55969	-304.10376	386.21698	710.34326	-310.05801	340.27460	716.49414	-337.30292	91.08112	698.84344	-317.91483	105.16655	620.10999	-400.49557	62.30886	656.78229	-198.23991	44.97291	622.53857	-176.22217	53.44233	661.44592	-219.54774	29.12488	728.69324
8	0.02800	-393.85437	1015.69183	485.89014	-225.41647	970.33099	372.76920	-325.47476	801.48352	294.30536	-317.29285	739.82751	284.05823	-251.16127	802.33038	306.12479	-252.17444	742.04352	294.69888	-326.64157	481.45645	296.65030	-334.35727	447.54767	407.58615	-400.10513	377.58197	264.70868	-392.46552	335.02322	260.17337	-335.44339	383.17487	262.59436	-338.48181	339.30740	258.03815	-358.38837	92.74965	269.59558	-347.25125	97.57140	348.44421	-422.03540	66.45509	312.64264	-247.56140	30.71728	238.12463	-195.75249	55.75075	306.01822	-221.01819	35.98306	352.07864	-390.62781	1013.04163	558.44794	-201.52698	969.46191	613.89069	-292.72812	792.18097	709.98456	-285.67773	729.41925	711.22778	-220.94724	792.77655	687.47485	-224.07062	730.13525	692.99670	-305.27103	462.83530	690.42731	-299.91855	463.16437	579.65015	-364.01520	392.63184	717.45703	-360.94070	344.86859	723.96692	-304.05341	386.23395	710.33954	-310.02573	340.30545	716.47150	-337.28870	91.10919	698.83264	-317.90277	105.17511	620.09930	-400.49701	62.28379	656.76660	-198.21999	44.98474	622.52747	-176.21053	53.43375	661.42657	-219.53099	29.14832	728.69135
9	0.03200	-393.82843	1015.71936	485.88446	-225.37796	970.33313	372.76117	-325.42114	801.48163	294.30746	-317.26608	739.80682	284.04315	-251.11806	802.30963	306.10886	-252.13458	742.03442	294.68402	-326.61877	481.44980	296.65329	-334.35449	447.56393	407.59198	-400.06052	377.56516	264.68921	-392.53030	334.94064	260.23596	-335.44351	383.15857	262.58508	-338.52469	339.32739	258.06830	-358.38376	92.72984	269.60498	-347.28555	97.58946	348.45383	-422.01450	66.42786	312.64154	-247.56200	30.69975	238.12125	-195.76544	55.93879	306.00009	-221.02097	35.98357	352.08163	-390.57919	1013.03485	558.44482	-201.48572	969.43903	613.88892	-292.67584	792.19470	709.98779	-285.66534	729.42938	711.22949	-220.91632	792.76587	687.47687	-224.02309	730.11963	692.96631	-305.25916	462.83728	690.42303	-300.26297	463.01965	580.05048	-363.99878	392.63635	717.47223	-361.09488	344.78387	723.53900	-304.03552	386.23300	710.32062	-309.99554	340.30774	716.47791	-337.30673	91.11406	698.82721	-317.91397	105.16438	620.09930	-400.49146	62.27378	656.73730	-198.23584	44.95664	622.52087	-176.20589	53.42316	661.42987	-219.52263	29.14678	728.69293
10	0.03600	-393.75461	1015.70544	485.90344	-225.34735	970.32397	372.74512	-325.40454	801.48163	294.27942	-317.22562	739.80695	284.04422	-251.09496	802.33124	306.11774	-252.08821	742.02808	294.67130	-326.60504	481.45367	296.64767	-334.33798	447.58426	407.60751	-400.07095	377.55847	264.69193	-392.42456	335.00543	260.16309	-335.43817	383.14844	262.57666	-338.48254	339.29211	258.02759	-358.40259	92.71189	269.60205	-347.29218	97.59421	348.46744	-422.04428	66.43718	312.63077	-247.56453	30.69018	238.10994	-195.78151	55.94191	305.99341	-221.02876	35.97810	352.08215	-390.55472	1013.04443	558.45770	-201.46429	969.44159	613.86420	-292.67010	792.20215	709.95459	-285.64407	729.43878	711.19720	-220.86870	792.78137	687.47681	-223.98511	730.13019	692.96344	-305.23999	462.83258	690.42468	-300.23767	463.02847	580.04010	-363.99930	392.67084	717.43634	-361.07605	344.79694	723.56024	-304.03839	386.23706	710.30975	-310.01117	340.32251	716.46387	-337.32840	91.11787	698.81763	-317.91904	105.16677	620.09875	-400.50702	62.29080	656.75055	-198.23146	44.94191	622.52209	-176.21313	53.41776	661.42426	-219.53201	29.15215	728.69946
